<svg width="56" height="55" viewBox="0 0 56 55" fill="none" xmlns="http://www.w3.org/2000/svg">
<path d="M10.0557 26.6704V39.0076L27.9925 42.3775V15.4905" stroke="#FF2A2A" stroke-width="1.3" stroke-linecap="round" stroke-linejoin="round"/>
<path d="M45.8326 26.9971V38.7923L27.9932 42.3776" stroke="#FF2A2A" stroke-width="1.3" stroke-linecap="round" stroke-linejoin="round"/>
<path d="M12.9953 35.1354L16.3652 35.494M33.4725 25.2938L48.8106 27.4068C49.0487 27.4398 49.2912 27.4085 49.5131 27.3163C49.735 27.224 49.9282 27.0741 50.0726 26.8821C50.2171 26.6901 50.3076 26.4629 50.3347 26.2241C50.3618 25.9854 50.3246 25.7437 50.2269 25.5242L45.8326 15.6333L27.992 12.6221L10.0574 15.7777L5.78345 24.9627C5.68429 25.1754 5.64239 25.4102 5.66189 25.6441C5.68138 25.8779 5.7616 26.1026 5.8946 26.2959C6.0276 26.4892 6.20878 26.6444 6.4202 26.7462C6.63162 26.848 6.86595 26.8928 7.10001 26.8762L22.3831 25.814C22.6875 25.793 22.9805 25.6897 23.2307 25.5151C23.481 25.3406 23.6791 25.1013 23.804 24.8229L27.992 15.4912L32.1777 24.3451C32.2975 24.5983 32.4785 24.8177 32.7043 24.9834C32.9302 25.149 33.195 25.2557 33.4725 25.2938Z" stroke="#FF2A2A" stroke-width="1.3" stroke-linecap="round" stroke-linejoin="round"/>
<line x1="43.3808" y1="6.39202" x2="12.0192" y2="47.8703" stroke="#FF2A2A" stroke-width="1.3"/>
</svg>
