<svg width="21" height="14" viewBox="0 0 21 14" fill="none" xmlns="http://www.w3.org/2000/svg">
<g clip-path="url(#clip0_234_6819)">
<path d="M2.88672 6.64806V11.882L10.4963 13.3117V1.90508" stroke="#343434" stroke-width="0.8" stroke-linecap="round" stroke-linejoin="round"/>
<path d="M18.0644 6.78661V11.7906L10.4961 13.3117" stroke="#343434" stroke-width="0.8" stroke-linecap="round" stroke-linejoin="round"/>
<path d="M4.13364 10.2394L5.56329 10.3916M12.8209 6.06423L19.328 6.96062C19.429 6.97462 19.5319 6.96137 19.626 6.92224C19.7202 6.8831 19.8021 6.81951 19.8634 6.73804C19.9247 6.65657 19.9631 6.5602 19.9746 6.4589C19.9861 6.3576 19.9703 6.25507 19.9288 6.16193L18.0646 1.96582L10.4959 0.688324L2.88725 2.02707L1.07406 5.92374C1.03199 6.01396 1.01421 6.1136 1.02248 6.21281C1.03076 6.31201 1.06479 6.40733 1.12121 6.48934C1.17764 6.57135 1.2545 6.63721 1.34419 6.68039C1.43389 6.72357 1.5333 6.74258 1.6326 6.73555L8.11635 6.28492C8.24548 6.276 8.36977 6.23217 8.47594 6.15811C8.5821 6.08405 8.66616 5.98255 8.71913 5.86443L10.4959 1.90555L12.2716 5.66173C12.3224 5.76916 12.3992 5.86223 12.495 5.93251C12.5909 6.00279 12.7032 6.04806 12.8209 6.06423Z" stroke="#343434" stroke-width="0.8" stroke-linecap="round" stroke-linejoin="round"/>
</g>
<defs>
<clipPath id="clip0_234_6819">
<rect width="21" height="14" fill="white"/>
</clipPath>
</defs>
</svg>
